<svg width="26" height="21" viewBox="0 0 26 21" fill="none" xmlns="http://www.w3.org/2000/svg">
<path fill-rule="evenodd" clip-rule="evenodd" d="M19.6373 16.9847V16.9863C19.6352 18.2294 19.633 19.5653 19.6327 21H23.8776C25.0497 21 26 20.0752 26 18.9344V8.5205H19.6059C19.6476 10.7349 19.6431 13.4989 19.6373 16.9847ZM26 6.97132L25.1875 3.95902C25.1875 1.77251 23.3662 3.85138e-07 21.1195 3.85138e-07L18.2622 0C18.946 1.12968 19.2802 2.59713 19.4536 4.85383C19.5021 5.48565 19.5385 6.18774 19.5656 6.97132H26ZM16.2679 0H9.53047C8.60061 0.905769 8.06823 2.10936 7.79414 5.08346C7.74179 5.65155 7.6993 6.27775 7.66483 6.97132H17.973C17.9469 6.23101 17.9121 5.5675 17.8661 4.96935C17.6427 2.06096 17.1643 0.891361 16.2679 0ZM7.51558 0H4.875C2.62829 0 0.806973 1.77251 0.806973 3.95902L0 6.97132H6.07138C6.10752 6.22617 6.15256 5.55392 6.20867 4.94507C6.4214 2.63677 6.80004 1.1417 7.51558 0ZM0 8.5205H6.01155C5.92429 11.4096 5.92464 15.2253 5.9251 20.3486V20.3499C5.92512 20.5643 5.92514 20.781 5.92516 21H2.12245C0.950253 21 0 20.0752 0 18.9344V8.5205ZM7.51698 21L7.51696 20.441C7.51658 15.211 7.5163 11.3833 7.60387 8.5205H11.1428C10.7045 8.96831 10.4354 9.57448 10.4354 10.2418C10.4354 11.6203 11.5836 12.7377 13 12.7377C14.4164 12.7377 15.5646 11.6203 15.5646 10.2418C15.5646 9.57448 15.2955 8.96831 14.8572 8.5205H18.014C18.0555 10.7028 18.0511 13.4466 18.0454 16.9486L18.0454 16.95C18.0433 18.2004 18.0412 19.5474 18.0409 21H7.51698ZM13 11.5328C13.7326 11.5328 14.3265 10.9548 14.3265 10.2418C14.3265 9.52882 13.7326 8.95082 13 8.95082C12.2674 8.95082 11.6735 9.52882 11.6735 10.2418C11.6735 10.9548 12.2674 11.5328 13 11.5328Z" fill="#807F85"/>
</svg>
