<svg width="19" height="21" viewBox="0 0 19 21" fill="none" xmlns="http://www.w3.org/2000/svg">
<path fill-rule="evenodd" clip-rule="evenodd" d="M10.2233 0.382348L9.44519 1.96647C9.32151 2.21823 9.36956 2.51847 9.56598 2.72131L15.1094 8.44573C15.3907 8.73621 15.8675 8.72468 16.1337 8.42096L18.8341 5.34044C19.0615 5.08103 19.0543 4.69635 18.8174 4.44522L15.3784 0.800126C15.1419 0.549486 14.7511 0.510963 14.4682 0.710398L13.5124 1.3842C13.2504 1.56884 12.8925 1.55103 12.6511 1.34136L11.3028 0.170304C10.9603 -0.127203 10.4217 -0.0213953 10.2233 0.382348ZM11.6234 6.67399L13.1054 8.08869C13.367 8.33852 13.3835 8.74461 13.143 9.01393L3.00587 20.3614C2.39513 21.0451 1.33849 21.1292 0.62257 20.5512C-0.120934 19.9509 -0.211732 18.8696 0.421685 18.1588L10.6218 6.71346C10.8821 6.42144 11.34 6.4034 11.6234 6.67399ZM12.9045 10.7192L8.63334 15.1991C8.51645 15.3217 8.50953 15.5096 8.61709 15.6401L9.86777 17.1576C9.99171 17.308 10.2193 17.326 10.3664 17.197L11.7794 15.9581C11.9262 15.8295 12.1533 15.8471 12.2774 15.9968L14.3493 18.4957C14.3105 18.6504 14.2899 18.8121 14.2899 18.9785C14.2899 20.0949 15.2159 21 16.3582 21C17.5006 21 18.4266 20.0949 18.4266 18.9785C18.4266 17.862 17.5006 16.957 16.3582 16.957C16.2106 16.957 16.0666 16.9721 15.9277 17.0008L13.6126 14.6702C13.5331 14.5902 13.4993 14.477 13.5223 14.3678L14.1076 11.5818C14.1317 11.4674 14.0934 11.349 14.0064 11.2689L13.3931 10.7037C13.254 10.5755 13.0348 10.5825 12.9045 10.7192ZM9.35027 7.01128L7.91146 8.58241L4.00574 5.24896L6.98126 9.59814L5.63675 11.0663C5.50143 11.2141 5.26543 11.2162 5.12733 11.0709L0.219788 5.90745C0.160552 5.84513 0.12763 5.76321 0.12763 5.67815V1.09244C0.12763 0.896178 0.298578 0.741457 0.49879 0.756509L4.465 1.0547C4.55712 1.06162 4.64255 1.10441 4.7021 1.17345L9.35696 6.5694C9.46768 6.69775 9.46483 6.88618 9.35027 7.01128Z" fill="#807F85"/>
</svg>
